<?xml version="1.0" standalone="no"?>
<!DOCTYPE svg PUBLIC "-//W3C//DTD SVG 20010904//EN"
 "http://www.w3.org/TR/2001/REC-SVG-20010904/DTD/svg10.dtd">
<svg version="1.0" xmlns="http://www.w3.org/2000/svg"
 width="300.000000pt" height="300.000000pt" viewBox="0 0 300.000000 300.000000"
 preserveAspectRatio="xMidYMid meet">
<metadata>
Created by potrace 1.11, written by Peter Selinger 2001-2013
</metadata>
<g transform="translate(0.000000,300.000000) scale(0.100000,-0.100000)"
fill="#000000" stroke="none">
<path d="M233 2970 c-82 -17 -136 -61 -172 -140 -20 -45 -21 -59 -21 -1306 0
-1429 -6 -1319 81 -1398 37 -33 63 -48 102 -56 37 -8 407 -10 1307 -8 1184 3
1257 4 1291 21 44 22 95 70 117 111 16 29 17 135 20 1306 2 1165 1 1279 -14
1319 -22 58 -69 110 -124 135 -45 21 -51 21 -1295 23 -687 0 -1269 -3 -1292
-7z m277 -330 l0 -140 -38 0 -39 0 -7 131 c-3 72 -4 135 0 140 3 5 23 9 45 9
l39 0 0 -140z m398 -2 l3 -138 -46 0 -45 0 0 141 0 140 43 -3 42 -3 3 -137z
m392 2 l0 -140 -45 0 -45 0 0 140 0 140 45 0 45 0 0 -140z m390 0 l0 -140 -45
0 -45 0 0 133 c0 74 3 137 7 140 3 4 24 7 45 7 l38 0 0 -140z m991 124 c52
-26 59 -61 58 -276 0 -264 -8 -324 -43 -354 -27 -24 -29 -24 -280 -24 -240 0
-255 1 -279 20 -15 12 -31 38 -37 58 -14 51 -13 480 1 521 7 18 26 41 43 52
28 17 53 19 269 19 197 0 243 -3 268 -16z m-2071 -314 l0 -40 -140 0 -140 0 0
33 c0 19 3 37 7 40 3 4 66 7 140 7 l133 0 0 -40z m395 0 l0 -35 -142 -3 -143
-3 0 34 c0 19 3 37 7 41 4 3 68 5 142 4 l136 -3 0 -35z m393 -2 l3 -38 -145 0
-146 0 0 33 c0 19 3 37 7 41 4 3 68 5 142 4 l136 -3 3 -37z m382 2 l0 -40
-140 0 -140 0 0 33 c0 19 3 37 7 40 3 4 66 7 140 7 l133 0 0 -40z m-1270 -202
l0 -138 -40 0 -40 0 0 138 0 137 40 0 40 0 0 -137z m395 -3 l0 -130 -42 -3
-43 -3 0 139 0 138 43 -5 42 -6 0 -130z m395 0 l0 -135 -45 0 -45 0 0 135 0
135 45 0 45 0 0 -135z m390 0 l0 -135 -45 0 -45 0 0 135 0 135 45 0 45 0 0
-135z m-1031 -346 c17 -6 36 -19 41 -29 6 -10 10 -104 10 -209 0 -178 -1 -192
-20 -211 -19 -19 -33 -20 -218 -20 -189 0 -200 1 -218 21 -17 19 -19 41 -22
208 -3 177 -2 188 18 213 11 15 30 29 43 31 50 10 336 6 366 -4z m617 -22 c23
-28 24 -32 24 -211 0 -170 -1 -185 -21 -210 l-20 -26 -199 0 c-261 0 -240 -20
-240 237 0 255 -13 243 258 240 l174 -2 24 -28z m577 10 l27 -17 0 -200 c0
-187 -1 -201 -20 -220 -19 -19 -33 -20 -212 -20 -257 0 -238 -19 -238 235 0
257 -13 244 250 242 140 -2 170 -5 193 -20z m472 -37 c25 -26 30 -38 30 -80 0
-40 -5 -54 -29 -79 -73 -77 -196 -27 -196 79 0 104 121 154 195 80z m309 25
c88 -42 87 -175 -1 -212 -48 -20 -92 -10 -129 28 -40 41 -42 114 -4 154 43 46
81 55 134 30z m-324 -354 c84 -61 48 -195 -56 -207 -48 -6 -81 11 -112 56 -71
105 65 227 168 151z m314 15 c102 -43 100 -186 -3 -217 -67 -20 -132 13 -150
75 -12 47 -3 82 30 116 25 25 39 31 82 39 4 0 22 -5 41 -13z m-1937 -238 c22
-21 23 -26 23 -214 0 -258 19 -238 -229 -242 l-191 -3 -31 30 -30 31 3 191 c4
248 -16 229 241 229 182 0 192 -1 214 -22z m588 -3 c25 -24 25 -26 25 -204 0
-113 -4 -189 -11 -205 -19 -42 -51 -48 -249 -44 -238 4 -220 -16 -220 243 l0
194 26 20 c25 20 40 21 216 21 187 0 189 0 213 -25z m583 5 c21 -20 22 -28 22
-220 l0 -199 -27 -21 c-26 -20 -36 -21 -216 -18 -245 4 -227 -16 -227 240 0
255 -17 238 238 238 176 0 190 -1 210 -20z m469 -135 c31 -35 38 -69 24 -116
-28 -93 -161 -106 -206 -19 -62 121 94 236 182 135z m346 -5 c63 -70 8 -190
-88 -190 -62 0 -115 57 -115 123 0 37 41 91 80 103 45 15 88 2 123 -36z m-365
-316 c95 -66 48 -214 -68 -214 -59 0 -120 58 -120 115 0 31 32 85 59 100 35
19 101 19 129 -1z m352 -11 c59 -53 48 -153 -20 -188 -45 -23 -94 -19 -129 11
-84 71 -36 204 74 204 35 0 52 -6 75 -27z m-1972 -123 c21 -20 22 -28 22 -212
0 -257 19 -238 -236 -238 -259 0 -239 -20 -239 235 0 255 -20 235 239 235 180
0 194 -1 214 -20z m587 -5 c25 -24 25 -26 25 -210 0 -251 17 -235 -241 -235
-258 0 -239 -18 -239 234 0 255 -19 236 237 236 193 0 194 0 218 -25z m585 5
c19 -19 20 -33 20 -215 0 -255 19 -235 -232 -235 -254 0 -238 -16 -238 235 0
251 -16 235 240 235 177 0 191 -1 210 -20z m440 -205 c54 -28 75 -98 45 -155
-21 -42 -53 -60 -103 -60 -37 0 -50 6 -79 35 -33 33 -35 38 -31 87 4 42 11 57
37 80 36 32 85 37 131 13z m369 -19 c22 -22 26 -35 26 -82 0 -50 -3 -58 -33
-85 -57 -51 -142 -36 -177 31 -29 56 -10 125 43 155 40 23 108 14 141 -19z"/>
</g>
</svg>
